<svg width="114" height="32" viewBox="0 0 114 32" fill="none" xmlns="http://www.w3.org/2000/svg">
<path d="M24.7536 13.045V21.73C24.7536 21.96 24.5536 22.075 24.1536 22.075C23.7536 22.075 23.5536 21.96 23.5536 21.73V17.665H19.0086V21.73C19.0086 21.96 18.8086 22.075 18.4086 22.075C18.0086 22.075 17.8086 21.96 17.8086 21.73V13.045C17.8086 12.485 17.9736 12.025 18.3036 11.665C18.6336 11.295 19.0536 11.04 19.5636 10.9C20.0736 10.75 20.6736 10.675 21.3636 10.675C23.6236 10.675 24.7536 11.465 24.7536 13.045ZM19.0086 12.895V16.615H23.5536V12.895C23.5536 12.115 22.7936 11.725 21.2736 11.725C19.7636 11.725 19.0086 12.115 19.0086 12.895ZM31.5428 20.95H33.9728C34.1728 20.95 34.2728 21.125 34.2728 21.475C34.2728 21.825 34.1728 22 33.9728 22H31.5428C30.6828 22 30.0728 21.795 29.7128 21.385C29.3528 20.965 29.1728 20.29 29.1728 19.36V11.17C29.1728 10.94 29.3728 10.825 29.7728 10.825C30.1728 10.825 30.3728 10.94 30.3728 11.17V19.36C30.3728 19.94 30.4578 20.35 30.6278 20.59C30.8078 20.83 31.1128 20.95 31.5428 20.95ZM39.5672 20.95H41.9972C42.1972 20.95 42.2972 21.125 42.2972 21.475C42.2972 21.825 42.1972 22 41.9972 22H39.5672C38.7072 22 38.0972 21.795 37.7372 21.385C37.3772 20.965 37.1972 20.29 37.1972 19.36V11.17C37.1972 10.94 37.3972 10.825 37.7972 10.825C38.1972 10.825 38.3972 10.94 38.3972 11.17V19.36C38.3972 19.94 38.4822 20.35 38.6522 20.59C38.8322 20.83 39.1372 20.95 39.5672 20.95ZM46.5717 11.17V21.73C46.5717 21.96 46.3717 22.075 45.9717 22.075C45.5717 22.075 45.3717 21.96 45.3717 21.73V11.17C45.3717 10.94 45.5717 10.825 45.9717 10.825C46.3717 10.825 46.5717 10.94 46.5717 11.17ZM52.2013 18.13V20.005C52.2013 20.785 52.9063 21.175 54.3163 21.175C55.7363 21.175 56.4463 20.785 56.4463 20.005V18.925C56.4463 18.695 56.6463 18.58 57.0463 18.58C57.4463 18.58 57.6463 18.695 57.6463 18.925V19.855C57.6463 20.685 57.3463 21.29 56.7463 21.67C56.1463 22.04 55.3413 22.225 54.3313 22.225C53.3313 22.225 52.5263 22.04 51.9163 21.67C51.3063 21.29 51.0013 20.685 51.0013 19.855V18.13C51.0013 17.1 51.4413 16.48 52.3213 16.27C51.5413 16.03 51.1513 15.42 51.1513 14.44V13.045C51.1513 12.215 51.4563 11.615 52.0663 11.245C52.6763 10.865 53.4513 10.675 54.3913 10.675C55.3413 10.675 56.0913 10.865 56.6413 11.245C57.1913 11.625 57.4663 12.225 57.4663 13.045V13.27C57.4663 13.5 57.2663 13.615 56.8663 13.615C56.4663 13.615 56.2663 13.5 56.2663 13.27V12.895C56.2663 12.115 55.6113 11.725 54.3013 11.725C53.0013 11.725 52.3513 12.115 52.3513 12.895V14.44C52.3513 15.32 52.8913 15.76 53.9713 15.76H55.0963C55.2963 15.76 55.3963 15.935 55.3963 16.285C55.3963 16.635 55.2963 16.81 55.0963 16.81H53.8213C52.7413 16.81 52.2013 17.25 52.2013 18.13ZM62.6644 11.95H62.5144V21.73C62.5144 21.96 62.3144 22.075 61.9144 22.075C61.5144 22.075 61.3144 21.96 61.3144 21.73V12.025C61.3144 11.585 61.3644 11.29 61.4644 11.14C61.5744 10.98 61.8244 10.9 62.2144 10.9H62.5444C63.2444 10.9 63.7144 10.98 63.9544 11.14C64.1944 11.3 64.3944 11.7 64.5544 12.34L66.5044 20.215C66.5944 20.575 66.6794 20.8 66.7594 20.89C66.8394 20.98 67.0394 21.025 67.3594 21.025H67.5094V11.245C67.5094 11.015 67.7094 10.9 68.1094 10.9C68.5094 10.9 68.7094 11.015 68.7094 11.245V20.95C68.7094 21.39 68.6544 21.69 68.5444 21.85C68.4444 22 68.1994 22.075 67.8094 22.075H67.4794C66.7794 22.075 66.3094 21.995 66.0694 21.835C65.8294 21.675 65.6294 21.275 65.4694 20.635L63.5194 12.76C63.4294 12.4 63.3444 12.175 63.2644 12.085C63.1844 11.995 62.9844 11.95 62.6644 11.95Z" fill="black"/>
<path d="M67.4706 1H1V31H114" stroke="black"/>
</svg>
