<svg width="114" height="32" viewBox="0 0 114 32" fill="none" xmlns="http://www.w3.org/2000/svg">
<path d="M24.7536 13.0445V21.7295C24.7536 21.9595 24.5536 22.0745 24.1536 22.0745C23.7536 22.0745 23.5536 21.9595 23.5536 21.7295V17.6645H19.0086V21.7295C19.0086 21.9595 18.8086 22.0745 18.4086 22.0745C18.0086 22.0745 17.8086 21.9595 17.8086 21.7295V13.0445C17.8086 12.4845 17.9736 12.0245 18.3036 11.6645C18.6336 11.2945 19.0536 11.0395 19.5636 10.8995C20.0736 10.7495 20.6736 10.6745 21.3636 10.6745C23.6236 10.6745 24.7536 11.4645 24.7536 13.0445ZM19.0086 12.8945V16.6145H23.5536V12.8945C23.5536 12.1145 22.7936 11.7245 21.2736 11.7245C19.7636 11.7245 19.0086 12.1145 19.0086 12.8945ZM31.5428 20.9495H33.9728C34.1728 20.9495 34.2728 21.1245 34.2728 21.4745C34.2728 21.8245 34.1728 21.9995 33.9728 21.9995H31.5428C30.6828 21.9995 30.0728 21.7945 29.7128 21.3845C29.3528 20.9645 29.1728 20.2895 29.1728 19.3595V11.1695C29.1728 10.9395 29.3728 10.8245 29.7728 10.8245C30.1728 10.8245 30.3728 10.9395 30.3728 11.1695V19.3595C30.3728 19.9395 30.4578 20.3495 30.6278 20.5895C30.8078 20.8295 31.1128 20.9495 31.5428 20.9495ZM39.5672 20.9495H41.9972C42.1972 20.9495 42.2972 21.1245 42.2972 21.4745C42.2972 21.8245 42.1972 21.9995 41.9972 21.9995H39.5672C38.7072 21.9995 38.0972 21.7945 37.7372 21.3845C37.3772 20.9645 37.1972 20.2895 37.1972 19.3595V11.1695C37.1972 10.9395 37.3972 10.8245 37.7972 10.8245C38.1972 10.8245 38.3972 10.9395 38.3972 11.1695V19.3595C38.3972 19.9395 38.4822 20.3495 38.6522 20.5895C38.8322 20.8295 39.1372 20.9495 39.5672 20.9495ZM46.5717 11.1695V21.7295C46.5717 21.9595 46.3717 22.0745 45.9717 22.0745C45.5717 22.0745 45.3717 21.9595 45.3717 21.7295V11.1695C45.3717 10.9395 45.5717 10.8245 45.9717 10.8245C46.3717 10.8245 46.5717 10.9395 46.5717 11.1695ZM52.2013 18.1295V20.0045C52.2013 20.7845 52.9063 21.1745 54.3163 21.1745C55.7363 21.1745 56.4463 20.7845 56.4463 20.0045V18.9245C56.4463 18.6945 56.6463 18.5795 57.0463 18.5795C57.4463 18.5795 57.6463 18.6945 57.6463 18.9245V19.8545C57.6463 20.6845 57.3463 21.2895 56.7463 21.6695C56.1463 22.0395 55.3413 22.2245 54.3313 22.2245C53.3313 22.2245 52.5263 22.0395 51.9163 21.6695C51.3063 21.2895 51.0013 20.6845 51.0013 19.8545V18.1295C51.0013 17.0995 51.4413 16.4795 52.3213 16.2695C51.5413 16.0295 51.1513 15.4195 51.1513 14.4395V13.0445C51.1513 12.2145 51.4563 11.6145 52.0663 11.2445C52.6763 10.8645 53.4513 10.6745 54.3913 10.6745C55.3413 10.6745 56.0913 10.8645 56.6413 11.2445C57.1913 11.6245 57.4663 12.2245 57.4663 13.0445V13.2695C57.4663 13.4995 57.2663 13.6145 56.8663 13.6145C56.4663 13.6145 56.2663 13.4995 56.2663 13.2695V12.8945C56.2663 12.1145 55.6113 11.7245 54.3013 11.7245C53.0013 11.7245 52.3513 12.1145 52.3513 12.8945V14.4395C52.3513 15.3195 52.8913 15.7595 53.9713 15.7595H55.0963C55.2963 15.7595 55.3963 15.9345 55.3963 16.2845C55.3963 16.6345 55.2963 16.8095 55.0963 16.8095H53.8213C52.7413 16.8095 52.2013 17.2495 52.2013 18.1295ZM62.6644 11.9495H62.5144V21.7295C62.5144 21.9595 62.3144 22.0745 61.9144 22.0745C61.5144 22.0745 61.3144 21.9595 61.3144 21.7295V12.0245C61.3144 11.5845 61.3644 11.2895 61.4644 11.1395C61.5744 10.9795 61.8244 10.8995 62.2144 10.8995H62.5444C63.2444 10.8995 63.7144 10.9795 63.9544 11.1395C64.1944 11.2995 64.3944 11.6995 64.5544 12.3395L66.5044 20.2145C66.5944 20.5745 66.6794 20.7995 66.7594 20.8895C66.8394 20.9795 67.0394 21.0245 67.3594 21.0245H67.5094V11.2445C67.5094 11.0145 67.7094 10.8995 68.1094 10.8995C68.5094 10.8995 68.7094 11.0145 68.7094 11.2445V20.9495C68.7094 21.3895 68.6544 21.6895 68.5444 21.8495C68.4444 21.9995 68.1994 22.0745 67.8094 22.0745H67.4794C66.7794 22.0745 66.3094 21.9945 66.0694 21.8345C65.8294 21.6745 65.6294 21.2745 65.4694 20.6345L63.5194 12.7595C63.4294 12.3995 63.3444 12.1745 63.2644 12.0845C63.1844 11.9945 62.9844 11.9495 62.6644 11.9495Z" fill="white"/>
<path d="M67.4706 1H1V31H114" stroke="white"/>
</svg>
